<svg width="1200" height="700" viewBox="0 0 1200 700" fill="none" xmlns="http://www.w3.org/2000/svg">
  <defs>
    <linearGradient id="bg" x1="0" y1="0" x2="1200" y2="700" gradientUnits="userSpaceOnUse">
      <stop offset="0" stop-color="#fff7ed"/>
      <stop offset="1" stop-color="#ffedd5"/>
    </linearGradient>
    <linearGradient id="panel" x1="0" y1="0" x2="1" y2="1">
      <stop offset="0" stop-color="#ffffff"/>
      <stop offset="1" stop-color="#fffaf5"/>
    </linearGradient>
  </defs>

  <rect width="1200" height="700" fill="url(#bg)"/>
  <rect x="72" y="56" width="1056" height="588" rx="24" fill="url(#panel)" stroke="#fdba74"/>

  <rect x="108" y="96" width="148" height="38" rx="19" fill="#f97316" fill-opacity="0.12"/>
  <text x="182" y="121" text-anchor="middle" fill="#c2410c" font-size="20" font-family="Segoe UI, Arial, sans-serif" font-weight="700">WIQL</text>

  <text x="108" y="186" fill="#0f172a" font-size="58" font-family="Segoe UI, Arial, sans-serif" font-weight="700">Learn WIQL</text>
  <text x="108" y="230" fill="#7c2d12" font-size="28" font-family="Segoe UI, Arial, sans-serif">Interactive Azure DevOps query learning app</text>

  <rect x="108" y="276" width="984" height="282" rx="24" fill="#fff7ed" stroke="#fdba74"/>

  <rect x="146" y="316" width="560" height="42" rx="12" fill="#ffffff" stroke="#fed7aa"/>
  <text x="176" y="343" fill="#9a3412" font-size="20" font-family="Consolas, 'Courier New', monospace">SELECT [System.Id], [System.Title]</text>

  <rect x="146" y="378" width="410" height="18" rx="9" fill="#fdba74" fill-opacity="0.45"/>
  <rect x="146" y="410" width="470" height="18" rx="9" fill="#fdba74" fill-opacity="0.3"/>
  <rect x="146" y="442" width="340" height="18" rx="9" fill="#fdba74" fill-opacity="0.3"/>

  <rect x="780" y="316" width="274" height="184" rx="18" fill="#ffffff" stroke="#fed7aa"/>
  <text x="814" y="352" fill="#ea580c" font-size="24" font-family="Segoe UI, Arial, sans-serif" font-weight="700">Query Builder</text>
  <rect x="814" y="376" width="206" height="14" rx="7" fill="#fdba74" fill-opacity="0.45"/>
  <rect x="814" y="404" width="170" height="14" rx="7" fill="#fdba74" fill-opacity="0.32"/>
  <rect x="814" y="432" width="188" height="14" rx="7" fill="#fdba74" fill-opacity="0.32"/>
  <rect x="814" y="462" width="120" height="28" rx="14" fill="#f97316"/>

  <text x="108" y="604" fill="#9a3412" font-size="24" font-family="Segoe UI, Arial, sans-serif">Learn, practice, and refine work item queries.</text>
</svg>
